<svg xmlns="http://www.w3.org/2000/svg" xmlns:xlink="http://www.w3.org/1999/xlink" id="Слой_1" x="0px" y="0px"
    viewBox="45 84 510 502" style="enable-background:new 0 0 584.6 611.7;" xml:space="preserve">
    <style type="text/css">
        .st0 {
            fill: #49b863;
        }

        .st1 {
            fill: #49b863;
            stroke: #49b863;
            stroke-miterlimit: 10;
        }
    </style>
    <path class="st0"
        d="M141.2,84.7v302.2H242V285.7c0-27.8,22.6-50.4,50.4-50.4c27.8,0,50.4,22.6,50.4,50.4v101.2h100.7V84.7H141.2z" />
    <g>
        <path class="st1"
            d="M396.6,518.7l-1.8,1.8c-1.9-2-4.1-2.9-6.7-2.8c-2.8,0-5.1,1-6.7,2.9c-1.6,1.9-2.4,4.1-2.4,6.7 c0,2.6,0.8,4.8,2.4,6.6c1.6,1.9,3.9,2.8,6.7,2.8c1.4,0,2.7-0.3,4-0.9c1.3-0.6,2.4-1.4,3.2-2.5l1.9,1.6c-1.1,1.3-2.5,2.4-4.1,3.1 c-1.6,0.8-3.3,1.1-5.1,1.1c-2.5,0-4.6-0.6-6.5-1.8c-1.8-1.2-3.2-2.7-4.1-4.4c-0.9-1.8-1.3-3.7-1.3-5.8c0-2.1,0.4-4,1.3-5.8 s2.2-3.3,4.1-4.5c1.9-1.2,4-1.8,6.5-1.8C391.4,515.2,394.3,516.4,396.6,518.7z" />
        <path class="st1"
            d="M415.8,524.2c1.6,1.7,2.4,3.8,2.4,6.3s-0.8,4.6-2.4,6.3c-1.6,1.7-3.7,2.5-6.2,2.5s-4.6-0.8-6.2-2.5 c-1.6-1.7-2.4-3.8-2.4-6.3s0.8-4.6,2.4-6.3c1.6-1.7,3.6-2.5,6.2-2.5S414.1,522.6,415.8,524.2z M403.6,530.5c0,2.1,0.6,3.7,1.7,4.8 c1.2,1.1,2.6,1.7,4.2,1.7c1.7,0,3.1-0.6,4.2-1.7c1.2-1.1,1.7-2.7,1.7-4.8c0-2.1-0.6-3.7-1.7-4.8c-1.2-1.1-2.6-1.7-4.2-1.7 c-1.6,0-3,0.6-4.2,1.7C404.2,526.9,403.6,528.5,403.6,530.5z" />
        <path class="st1"
            d="M425.7,531.7v7.3h-2.5v-16.9h2.5v7.3h2.7c0.1-0.8,0.3-1.5,0.7-2.3c0.7-1.6,1.8-2.8,3.2-3.8 c1.4-0.9,2.9-1.3,4.6-1.3c2.3,0,4.3,0.8,5.9,2.3c1.7,1.8,2.6,3.9,2.6,6.4c0,1.5-0.3,2.9-1,4.2s-1.6,2.4-2.9,3.2 c-1.4,0.8-2.9,1.3-4.6,1.3c-2.7,0-4.9-1.1-6.6-3.1c-1.1-1.4-1.7-2.9-1.9-4.5L425.7,531.7L425.7,531.7z M431,530.6 c0,1.6,0.4,3,1.3,4.1l0,0c0.6,0.6,1.3,1.2,2.1,1.6c0.8,0.4,1.7,0.6,2.5,0.6c1.1,0,2.2-0.3,3.3-0.9c0.9-0.6,1.5-1.3,2-2.2 c0.5-0.9,0.7-2,0.7-3.1c0-1.9-0.6-3.4-1.8-4.6c-1.2-1.2-2.5-1.7-4.2-1.7c-1.1,0-2.2,0.3-3.3,1s-1.9,1.7-2.3,3 C431.1,529,431,529.7,431,530.6z" />
        <path class="st1"
            d="M460.4,526.5c0,0.7-0.2,1.4-0.6,2.1c-0.4,0.7-1,1.2-1.8,1.4c0.9,0.3,1.6,0.9,2.1,1.6c0.5,0.7,0.8,1.5,0.8,2.2 c0,1.8-0.6,3.2-1.9,4.1c-1.3,0.9-2.8,1.3-4.7,1.3c-2.1,0-4.2-0.8-6.3-2.3l1.3-1.9c0.7,0.8,1.7,1.4,3.1,1.7c1.4,0.4,2.7,0.3,3.9-0.1 c1.2-0.5,1.8-1.4,1.8-2.7c0-1.8-1.7-2.7-5-2.7h-1.5V529h1.6c1.3,0,2.4-0.1,3.2-0.5c0.8-0.4,1.2-1,1.2-2.1c0-0.8-0.4-1.4-1.1-1.8 c-0.7-0.4-1.5-0.6-2.5-0.6c-1.8,0-3.2,0.5-4.2,1.5l-1.4-1.6c1.6-1.5,3.5-2.2,5.6-2.2c1.7,0,3.1,0.4,4.3,1.2 C459.8,523.8,460.4,525,460.4,526.5z" />
    </g>
    <path class="st0"
        d="M189.6,544.2c0,14.6-11.7,26.3-26.3,26.3S137,558.8,137,544.2c0-14.6,11.7-26.3,26.3-26.3 S189.6,529.6,189.6,544.2z M180.6,544.2c0-9.9-7.4-18-17.2-18c-9.9,0-17.3,8.1-17.3,18s7.4,18,17.3,18 C173.2,562.2,180.6,554.1,180.6,544.2z" />
    <g>
        <path class="st0"
            d="M263.6,526.8v-7.9h15.2v35.4l29.6-35.4h12.5v7.9h-6.4v34.8h6.4v7.9h-15.3v-33.9l-28.8,33.9h-7v-42.6h-6.2 L263.6,526.8L263.6,526.8z" />
    </g>
    <polygon class="st0"
        points="127.9,548.7 143.1,548.7 143.1,540.7 127.9,540.7 127.9,526.8 127.9,526.8 127.9,518.9 112.6,518.9 112.6,526.8 119,526.8 119,561.6 112.6,561.6 112.6,569.4 127.9,569.4 127.9,561.6 127.9,561.6 " />
    <g>
        <g>
            <path class="st0"
                d="M280.9,455.3h-27.7V467h17v8.2h-17v14.1h19.7v-7.4h8v15.6h-43v-7.8h6.4v-34.8h-6.4V447h43V455.3z" />
            <path class="st0"
                d="M391,489.7h6.3v7.9h-15.2v-22.7H357v22.7h-15.3v-7.9h6.4v-34.8h-6.4V447H357v19.8h25.1V447h15.2v7.9H391 V489.7z" />
            <polygon class="st0"
                points="471.1,454.9 477.4,454.9 477.4,447 462.3,447 462.3,454.9 462.2,454.9 462.2,489.7 462.3,489.7 462.3,497.6 477.4,497.6 477.4,489.7 471.1,489.7 " />
            <path class="st0"
                d="M407.1,497.6v-7.9h6.4v-34.8h-6.4V447h15.3v19.8h7.6c14.3,0,22,4.4,22,15.4c0,10.5-7,15.3-20.7,15.3 L407.1,497.6L407.1,497.6z M422.4,475v14.3h8.6c6.9,0,12.2-1.6,12.2-7.1c0-6.1-5.3-7.2-12.2-7.2H422.4z" />
            <path class="st0"
                d="M532,455.3h-27.7V467h17v8.2h-17v14.1H524v-7.4h8v15.6h-43v-7.8h6.4v-34.8H489V447h43V455.3z" />
            <g>
                <path class="st0"
                    d="M312.4,475.1h-7V467l8-0.1c3.1,0,8.5-1.7,8.5-6.2c0-4.6-5.9-6.9-11.5-6.9c-5.7,0-9.5,1.3-9.5,1.3v7H293v-6 v-7.9c0,0,7.2-2.7,16.1-2.7c15.8,0,21.6,6.3,21.6,15.1C330.6,470.3,319.9,475.1,312.4,475.1z" />
            </g>
            <g>
                <path class="st0"
                    d="M309.8,467h-4.5v8.1l5.5,0.1c6.9,0,11.5,2.2,11.5,6.7c0,5.5-5.3,8.8-11.9,8.8c-9.3,0-17.4-4.2-17.4-4.2v8.5 c0,0,7,4,17.3,4c16,0,20.8-6.6,20.8-17C331,472.4,319,467,309.8,467z" />
            </g>
        </g>
        <path class="st0"
            d="M168.6,472.4c0,14.6-11.7,26.3-26.3,26.3S116,487,116,472.4s11.7-26.3,26.3-26.3S168.6,457.8,168.6,472.4z M159.6,472.4c0-9.9-7.4-18-17.2-18c-9.9,0-17.3,8.1-17.3,18s7.4,18,17.3,18C152.2,490.3,159.6,482.2,159.6,472.4z" />
        <path class="st0"
            d="M99.6,489.7h6.3v7.9H90.7v-42.5H65.6v42.5H50.3v-7.9h6.4v-34.8h-6.4V447h55.6v7.9h-6.3L99.6,489.7L99.6,489.7z " />
        <g>
            <rect x="182.9" y="447" class="st0" width="38.6" height="7.9" />
            <g>
                <path class="st0"
                    d="M177.6,499.4l-4.1-7.9c3.5-1.8,8.4-5.8,11.2-14.6c2.7-8.4,5.8-26.9,5.8-27.1l8.8,1.4 c-0.1,0.8-3.2,19.3-6.1,28.4C189.4,491.3,182.7,496.9,177.6,499.4z" />
                <rect x="212.6" y="489.6" class="st0" width="15.3" height="7.8" />
                <rect x="212.6" y="449.6" class="st0" width="8.9" height="43.2" />
            </g>
            <rect x="192.6" y="447" class="st0" width="28.8" height="8.2" />
        </g>
    </g>
    <g>
        <rect x="56.9" y="518.9" class="st0" width="38.6" height="7.9" />
        <g>
            <path class="st0"
                d="M51.6,571.3l-4.1-7.9c3.5-1.8,8.4-5.8,11.2-14.6c2.7-8.4,5.8-26.9,5.8-27.1l8.8,1.4 c-0.1,0.8-3.2,19.3-6.1,28.4C63.4,563.2,56.7,568.7,51.6,571.3z" />
            <rect x="86.6" y="561.5" class="st0" width="15.3" height="7.8" />
            <rect x="86.6" y="521.5" class="st0" width="8.9" height="43.2" />
        </g>
        <rect x="66.7" y="518.9" class="st0" width="28.8" height="8.2" />
    </g>
    <rect x="206.5" y="518.9" class="st0" width="38.6" height="7.9" />
    <rect x="236.2" y="561" class="st0" width="15.3" height="8.3" />
    <rect x="192.3" y="561" class="st0" width="17.2" height="8.3" />
    <rect x="236.2" y="521.5" class="st0" width="8.9" height="43.2" />
    <rect x="242.6" y="561" class="st0" width="8.9" height="24.3" />
    <rect x="216.3" y="518.9" class="st0" width="28.8" height="8.2" />
    <rect x="203.5" y="561.1" class="st0" width="39.5" height="8.2" />
    <path class="st0"
        d="M208,563.5c4-2.5,7.5-7.6,9.1-12.7c2.9-9.1,5.8-26.9,5.9-27.7l-8.8-1.4c0,0.2-3.1,18.7-5.8,27.1 c-2.9,8.8-7.7,12.8-11.2,14.6l0,0L208,563.5L208,563.5z" />
    <g>
        <path class="st1"
            d="M383.5,552.4c2.6-0.1,4.7,0.7,6.2,2.2s2.2,3.7,2.2,6.5c0,2.5-0.8,4.5-2.4,6.2c-1.6,1.6-3.5,2.4-5.7,2.4 c-1.7,0-3.1-0.4-4.3-1.2v7.5H377v-23.4h2l0.4,1.8c0.4-0.6,1-1,1.7-1.4S382.8,552.4,383.5,552.4z M384.1,567.4c1.7-0.2,3-0.8,4-2 c0.9-1.2,1.4-2.6,1.4-4.5c0-2-0.6-3.6-1.7-4.7c-1.1-1.1-2.5-1.6-4.1-1.6c-1.5,0-2.8,0.7-4.1,1.8v9.2 C380.8,567.1,382.3,567.6,384.1,567.4z" />
        <path class="st1" d="M408.6,556.7l-9.3,12.8H397v-16.9h2.6v12.8l9.3-12.8h2.3v16.9h-2.6V556.7z" />
        <path class="st1"
            d="M421.8,554.6c-1.6,0-3.1,0.6-4.6,1.9l-1.4-1.5c1.8-1.8,3.7-2.7,5.9-2.7c2.5,0,4.5,0.9,6,2.5 c1.6,1.7,2.3,3.7,2.3,6.3c0,2.4-0.8,4.5-2.3,6.1c-1.5,1.6-3.5,2.4-6,2.5c-2.1,0-4.1-0.9-6.3-2.6l1.5-1.7c1.6,1.3,3.1,2,4.8,2 s3-0.5,4.1-1.4c1.1-0.9,1.6-2.2,1.7-3.8h-8.7v-2.1h8.7c0-1.5-0.6-2.8-1.8-3.8C424.6,555.1,423.3,554.6,421.8,554.6z" />
        <path class="st1"
            d="M438.3,561.8c0,0.9,0,1.6-0.1,2.2c-0.1,0.6-0.3,1.3-0.6,2c-0.3,0.7-0.7,1.4-1.4,2c-0.6,0.6-1.4,1.2-2.4,1.7 l-1.2-1.8c0.8-0.4,1.4-0.9,1.8-1.4c0.5-0.5,0.8-1.1,0.9-1.9c0.2-0.7,0.3-1.3,0.3-1.8s0.1-1.1,0.1-2v-8.4h12.1v16.9h-2.6v-14.6h-6.9 L438.3,561.8L438.3,561.8z" />
        <path class="st1" d="M451.9,554.8v-2.2h13.5v2.2H460v14.7h-2.7v-14.7H451.9z" />
        <path class="st1"
            d="M483.2,554.7c1.6,1.7,2.4,3.8,2.4,6.3s-0.8,4.6-2.4,6.3c-1.6,1.7-3.7,2.5-6.2,2.5s-4.6-0.8-6.2-2.5 c-1.6-1.7-2.4-3.8-2.4-6.3s0.8-4.6,2.4-6.3c1.6-1.7,3.6-2.5,6.2-2.5S481.6,553.1,483.2,554.7z M471.1,561c0,2.1,0.6,3.7,1.7,4.8 c1.2,1.1,2.6,1.7,4.2,1.7c1.7,0,3.1-0.6,4.2-1.7c1.2-1.1,1.7-2.7,1.7-4.8c0-2.1-0.6-3.7-1.7-4.8c-1.2-1.1-2.6-1.7-4.2-1.7 c-1.6,0-3,0.6-4.2,1.7C471.7,557.4,471.1,559,471.1,561z" />
        <path class="st1"
            d="M497,552.4c2.6-0.1,4.7,0.7,6.2,2.2s2.2,3.7,2.2,6.5c0,2.5-0.8,4.5-2.4,6.2c-1.6,1.6-3.5,2.4-5.7,2.4 c-1.7,0-3.1-0.4-4.3-1.2v7.5h-2.3v-23.4h2l0.4,1.8c0.4-0.6,1-1,1.7-1.4S496.3,552.4,497,552.4z M497.6,567.4c1.7-0.2,3-0.8,4-2 c0.9-1.2,1.4-2.6,1.4-4.5c0-2-0.6-3.6-1.7-4.7c-1.1-1.1-2.5-1.6-4.1-1.6c-1.5,0-2.8,0.7-4.1,1.8v9.2 C494.3,567.1,495.8,567.6,497.6,567.4z" />
        <path class="st1"
            d="M524.1,554.7c1.6,1.7,2.4,3.8,2.4,6.3s-0.8,4.6-2.4,6.3c-1.6,1.7-3.7,2.5-6.2,2.5s-4.6-0.8-6.2-2.5 c-1.6-1.7-2.4-3.8-2.4-6.3s0.8-4.6,2.4-6.3c1.6-1.7,3.6-2.5,6.2-2.5S522.4,553.1,524.1,554.7z M511.9,561c0,2.1,0.6,3.7,1.7,4.8 c1.2,1.1,2.6,1.7,4.2,1.7c1.7,0,3.1-0.6,4.2-1.7c1.2-1.1,1.7-2.7,1.7-4.8c0-2.1-0.6-3.7-1.7-4.8c-1.2-1.1-2.6-1.7-4.2-1.7 c-1.6,0-3,0.6-4.2,1.7C512.5,557.4,511.9,559,511.9,561z" />
        <path class="st1"
            d="M531.8,569.4v-16.9h6.7c1.7,0,3.2,0.4,4.3,1.1c1.2,0.7,1.8,1.9,1.8,3.4c0,0.8-0.3,1.5-0.8,2.3 c-0.5,0.7-1.1,1.2-1.9,1.3c0.9,0.2,1.7,0.6,2.3,1.4c0.6,0.7,1,1.5,1,2.3c0.1,1.8-0.5,3.1-1.8,3.9s-2.9,1.2-4.7,1.2H531.8 L531.8,569.4z M538.5,554.7h-4.2v4.9h4.3c2.4,0,3.5-0.8,3.5-2.5C542,555.5,540.8,554.7,538.5,554.7z M538.3,561.7h-4v5.5h4.4 c1.2,0,2.2-0.2,2.9-0.7c0.8-0.5,1.1-1.2,1.1-2.1c-0.1-1-0.5-1.7-1.4-2.1C540.5,561.9,539.5,561.7,538.3,561.7z" />
    </g>
    <rect x="347.1" y="517.9" class="st0" width="2.8" height="51.5" />
</svg>