<svg xmlns="http://www.w3.org/2000/svg" xmlns:xlink="http://www.w3.org/1999/xlink" id="Слой_1" x="0px" y="0px"
    viewBox="0 0 674 156" style="enable-background:new 0 0 1214.9 186;" xml:space="preserve">
    <style type="text/css">
        .st0 {
            fill: #fff;
        }

        .st1 {
            fill: #fff;
            stroke: #fff;
            stroke-miterlimit: 10;
        }
    </style>
    <g>
        <path class="st0"
            d="M16.4,21.3v121.8H57v-40.8C57,91.1,66.1,82,77.3,82s20.3,9.1,20.3,20.3v40.8h40.6V21.3H16.4z" />
        <path class="st0"
            d="M318.9,118.5c0,14.6-11.7,26.3-26.3,26.3s-26.3-11.7-26.3-26.3s11.7-26.3,26.3-26.3S318.9,103.9,318.9,118.5z M309.9,118.5c0-9.9-7.4-18-17.2-18c-9.9,0-17.3,8.1-17.3,18s7.4,18,17.3,18C302.5,136.5,309.9,128.4,309.9,118.5z" />
        <g>
            <path class="st0"
                d="M392.9,101.1v-7.9h15.2v35.4l29.6-35.4h12.5v7.9h-6.4v34.8h6.4v7.9h-15.3v-33.9l-28.8,33.9h-7v-42.6h-6.2 L392.9,101.1L392.9,101.1z" />
        </g>
        <polygon class="st0"
            points="257.2,123 272.4,123 272.4,115 257.2,115 257.2,101.1 257.2,101.1 257.2,93.2 241.9,93.2 241.9,101.1 248.3,101.1 248.3,135.9 241.9,135.9 241.9,143.7 257.2,143.7 257.2,135.9 257.2,135.9 " />
        <g>
            <g>
                <path class="st0"
                    d="M410.2,29.6h-27.7v11.7h17v8.2h-17v14.1h19.7v-7.4h8v15.6h-43V64h6.4V29.2h-6.4v-7.9h43V29.6z" />
                <path class="st0"
                    d="M520.3,64h6.3v7.9h-15.2V49.2h-25.1v22.7H471V64h6.4V29.2H471v-7.9h15.3v19.8h25.1V21.3h15.2v7.9h-6.3V64z" />
                <polygon class="st0"
                    points="600.4,29.2 606.7,29.2 606.7,21.3 591.6,21.3 591.6,29.2 591.5,29.2 591.5,64 591.6,64 591.6,71.9 606.7,71.9 606.7,64 600.4,64 " />
                <path class="st0"
                    d="M536.4,71.9V64h6.4V29.2h-6.4v-7.9h15.3v19.8h7.6c14.3,0,22,4.4,22,15.4c0,10.5-7,15.3-20.7,15.3L536.4,71.9 L536.4,71.9z M551.7,49.3v14.3h8.6c6.9,0,12.2-1.6,12.2-7.1c0-6.1-5.3-7.2-12.2-7.2H551.7z" />
                <path class="st0"
                    d="M661.3,29.6h-27.7v11.7h17v8.2h-17v14.1h19.7v-7.4h8v15.6h-43V64h6.4V29.2h-6.4v-7.9h43V29.6z" />
                <g>
                    <path class="st0"
                        d="M441.7,49.4h-7v-8.1l8-0.1c3.1,0,8.5-1.7,8.5-6.2c0-4.6-5.9-6.9-11.5-6.9c-5.7,0-9.5,1.3-9.5,1.3v7h-7.9v-6 v-7.9c0,0,7.2-2.7,16.1-2.7c15.8,0,21.6,6.3,21.6,15.1C459.9,44.6,449.2,49.4,441.7,49.4z" />
                </g>
                <g>
                    <path class="st0"
                        d="M439.1,41.3h-4.5v8.1l5.5,0.1c6.9,0,11.5,2.2,11.5,6.7c0,5.5-5.3,8.8-11.9,8.8c-9.3,0-17.4-4.2-17.4-4.2 v8.5c0,0,7,4,17.3,4c16,0,20.8-6.6,20.8-17C460.3,46.7,448.3,41.3,439.1,41.3z" />
                </g>
            </g>
            <path class="st0"
                d="M297.9,46.7c0,14.6-11.7,26.3-26.3,26.3s-26.3-11.7-26.3-26.3s11.7-26.3,26.3-26.3S297.9,32.1,297.9,46.7z M288.9,46.7c0-9.9-7.4-18-17.2-18c-9.9,0-17.3,8.1-17.3,18s7.4,18,17.3,18C281.5,64.6,288.9,56.5,288.9,46.7z" />
            <path class="st0"
                d="M228.9,64h6.3v7.9H220V29.4h-25.1v42.5h-15.3V64h6.4V29.2h-6.4v-7.9h55.6v7.9h-6.3L228.9,64L228.9,64z" />
            <g>
                <rect x="312.2" y="21.3" class="st0" width="38.6" height="7.9" />
                <g>
                    <path class="st0"
                        d="M306.9,73.7l-4.1-7.9c3.5-1.8,8.4-5.8,11.2-14.6c2.7-8.4,5.8-26.9,5.8-27.1l8.8,1.4 c-0.1,0.8-3.2,19.3-6.1,28.4C318.7,65.6,312,71.2,306.9,73.7z" />
                    <rect x="341.9" y="63.9" class="st0" width="15.3" height="7.8" />
                    <rect x="341.9" y="23.9" class="st0" width="8.9" height="43.2" />
                </g>
                <rect x="321.9" y="21.3" class="st0" width="28.8" height="8.2" />
            </g>
        </g>
        <g>
            <rect x="186.2" y="93.2" class="st0" width="38.6" height="7.9" />
            <g>
                <path class="st0"
                    d="M180.9,145.6l-4.1-7.9c3.5-1.8,8.4-5.8,11.2-14.6c2.7-8.4,5.8-26.9,5.8-27.1l8.8,1.4 c-0.1,0.8-3.2,19.3-6.1,28.4C192.7,137.5,186,143,180.9,145.6z" />
                <rect x="215.9" y="135.8" class="st0" width="15.3" height="7.8" />
                <rect x="215.9" y="95.8" class="st0" width="8.9" height="43.2" />
            </g>
            <rect x="196" y="93.2" class="st0" width="28.8" height="8.2" />
        </g>
        <rect x="335.8" y="93.2" class="st0" width="38.6" height="7.9" />
        <rect x="365.5" y="135.3" class="st0" width="15.3" height="8.3" />
        <rect x="321.6" y="135.3" class="st0" width="17.2" height="8.3" />
        <rect x="365.5" y="95.8" class="st0" width="8.9" height="43.2" />
        <rect x="371.9" y="135.3" class="st0" width="8.9" height="24.3" />
        <rect x="345.6" y="93.2" class="st0" width="28.8" height="8.2" />
        <rect x="332.8" y="135.4" class="st0" width="39.5" height="8.2" />
        <path class="st0"
            d="M337.3,137.8c4-2.5,7.5-7.6,9.1-12.7c2.9-9.1,5.8-26.9,5.9-27.7l-8.8-1.4c0,0.2-3.1,18.7-5.8,27.1 c-2.9,8.8-7.7,12.8-11.2,14.6l0,0L337.3,137.8L337.3,137.8z" />
    </g>
</svg>