<svg xmlns="http://www.w3.org/2000/svg" xmlns:xlink="http://www.w3.org/1999/xlink" width='48' height='48' id="Слой_1" x="0px" y="0px"
    viewBox="0 0 1000 1000" style="enable-background:new 0 0 1000 1000;" xml:space="preserve">
    <style type="text/css">
        .st0 {
            fill: #b8e2c2;
        }
    </style>
    <path class="st0"
        d="M500,0C223.9,0,0,223.9,0,500s223.9,500,500,500s500-223.9,500-500S776.1,0,500,0z M776.4,706.5 c-26.8,1.2-53.8,2.1-80.3-0.6c-10.9-1.1-21.9-11.1-30.6-19.5c-21.8-20.5-41.6-43-63.4-63.5c-9.6-9-21.1-16.8-33-22.6 c-22.6-11.2-33.8-4-34.1,20.9c-0.3,19.2,0.1,38.4-0.1,57.6c-0.2,17.8-5.6,23.8-23.4,26.5c-34.5,5.2-67.6-0.4-99.8-12.9 c-43.4-16.8-80.2-43.4-109.9-78.9c-55.4-66.4-98.4-140.1-125.8-222.5c-3.6-10.9-5.8-22.5-7.4-33.9c-1.6-11.6,4.1-20,15.9-20.2 c27.6-0.8,55.4-0.9,83,0.1c13.6,0.5,18.1,12.5,22.8,23.5c13.1,31.2,25,63.2,40.8,93c13.9,26.2,31.9,50.5,49.2,74.6 c6.5,9,15.6,20.4,28.6,15.4c12.2-4.8,8-18.6,8.2-28.6c0.6-29.5,0.1-59,0.3-88.5c0.1-22.1-5.5-42-19.7-59.8c-4.2-5.4-7.5-16-5-21 c2.6-5.2,12.8-9.2,19.7-9.5c33-1,66.1-0.5,99.1-0.4c17.1,0.1,22.5,5.1,23,22.4c0.5,23.3,0.1,46.5,0.1,69.6c0.1,0,0.1,0,0.2,0 c0,22.8-0.6,45.6,0.4,68.4c0.2,6.4,3.5,15.8,8.1,17.8c4.8,2.1,14.5-1.2,18.9-5.5c14.4-14.5,29.8-29,40.4-46.1 c20.5-32.9,39.3-66.9,56.5-101.6c8.8-17.8,20.1-25.9,39.5-25.3c19.6,0.6,39.2,0,59,0.3c23.6,0.3,30.1,9,21.9,31.2 c-5.2,14.1-11.8,28.1-19.6,41c-22.1,35.6-45,70.9-68,105.9c-12.6,19.2-12.5,24.7,3.2,42c25.6,28,51.6,55.6,76.2,84.5 c9.4,11,16.8,24.4,22.2,37.8C800.4,693.9,793.1,705.6,776.4,706.5z" />
</svg>