<?xml version="1.0" encoding="UTF-8" standalone="no"?><svg xmlns="http://www.w3.org/2000/svg" xmlns:xlink="http://www.w3.org/1999/xlink" contentScriptType="application/ecmascript" contentStyleType="text/css" height="643px" preserveAspectRatio="none" style="width:1113px;height:643px;" version="1.1" viewBox="0 0 1113 643" width="1113px" zoomAndPan="magnify"><defs><filter height="300%" id="f1lua873czk68r" width="300%" x="-1" y="-1"><feGaussianBlur result="blurOut" stdDeviation="2.0"/><feColorMatrix in="blurOut" result="blurOut2" type="matrix" values="0 0 0 0 0 0 0 0 0 0 0 0 0 0 0 0 0 0 .4 0"/><feOffset dx="4.0" dy="4.0" in="blurOut2" result="blurOut3"/><feBlend in="SourceGraphic" in2="blurOut3" mode="normal"/></filter></defs><g><!--MD5=[77d0e787bde9647828dee0215534d898]
cluster Отношения--><polygon fill="#FFFFFF" filter="url(#f1lua873czk68r)" points="665,22.5,751,22.5,758,44.9063,940,44.9063,940,624.5,665,624.5,665,22.5" style="stroke: #000000; stroke-width: 1.5;"/><line style="stroke: #000000; stroke-width: 1.5;" x1="665" x2="758" y1="44.9063" y2="44.9063"/><text fill="#000000" font-family="sans-serif" font-size="14" font-weight="bold" lengthAdjust="spacingAndGlyphs" textLength="80" x="669" y="37.4883">Отношения</text><!--MD5=[9e46c0162bde7143ac9de726ae46258e]
cluster Контакты--><polygon fill="#FFFFFF" filter="url(#f1lua873czk68r)" points="957,16,1035,16,1042,38.4063,1091,38.4063,1091,402,957,402,957,16" style="stroke: #000000; stroke-width: 1.5;"/><line style="stroke: #000000; stroke-width: 1.5;" x1="957" x2="1042" y1="38.4063" y2="38.4063"/><text fill="#000000" font-family="sans-serif" font-size="14" font-weight="bold" lengthAdjust="spacingAndGlyphs" textLength="72" x="961" y="30.9883">Контакты</text><!--MD5=[ede7f23967933078e8651f2a40ee21c3]
cluster Сделки--><polygon fill="#FFFFFF" filter="url(#f1lua873czk68r)" points="14,29,73,29,80,51.4063,657,51.4063,657,631,14,631,14,29" style="stroke: #000000; stroke-width: 1.5;"/><line style="stroke: #000000; stroke-width: 1.5;" x1="14" x2="80" y1="51.4063" y2="51.4063"/><text fill="#000000" font-family="sans-serif" font-size="14" font-weight="bold" lengthAdjust="spacingAndGlyphs" textLength="53" x="18" y="43.9883">Сделки</text><!--MD5=[3fd616f346a44cd59a91eb10b19e157c]
class User--><rect fill="#FEFECE" filter="url(#f1lua873czk68r)" height="79.9063" id="User" style="stroke: #A80036; stroke-width: 1.5;" width="119" x="811.5" y="56"/><ellipse cx="826.5" cy="75.0625" fill="#ADD1B2" rx="11" ry="11" style="stroke: #A80036; stroke-width: 1.0;"/><path d="M826.5469,81.2656 C828.0469,81.2656 829.2813,80.7031 830.1875,79.6406 L828.8125,78.125 C828.2656,78.7188 827.6094,79.1094 826.8125,79.1094 C825.1406,79.1094 823.9844,77.7813 823.9844,75.5 C823.9844,73.2813 825.1406,71.9375 826.7031,71.9375 C827.5156,71.9375 828.1094,72.25 828.6406,72.7344 L830.0156,71.1875 C829.2656,70.4531 828.1094,69.7813 826.7031,69.7813 C823.75,69.7813 821.4219,71.9219 821.4219,75.5938 C821.4219,79.3125 823.7969,81.2656 826.5469,81.2656 Z "/><text fill="#000000" font-family="sans-serif" font-size="12" font-style="italic" lengthAdjust="spacingAndGlyphs" textLength="91" x="838.5" y="72.1328">«Пользователь»</text><text fill="#000000" font-family="sans-serif" font-size="12" lengthAdjust="spacingAndGlyphs" textLength="25" x="871.5" y="86.1953">User</text><line style="stroke: #A80036; stroke-width: 1.5;" x1="812.5" x2="929.5" y1="94.125" y2="94.125"/><ellipse cx="822.5" cy="105.125" fill="none" rx="3" ry="3" style="stroke: #038048; stroke-width: 1.0;"/><text fill="#000000" font-family="sans-serif" font-size="11" lengthAdjust="spacingAndGlyphs" textLength="28" x="831.5" y="108.3301">code</text><ellipse cx="822.5" cy="118.0156" fill="none" rx="3" ry="3" style="stroke: #038048; stroke-width: 1.0;"/><text fill="#000000" font-family="sans-serif" font-size="11" lengthAdjust="spacingAndGlyphs" textLength="32" x="831.5" y="121.2207">name</text><line style="stroke: #A80036; stroke-width: 1.5;" x1="812.5" x2="929.5" y1="127.9063" y2="127.9063"/><!--MD5=[534474e9f05b14d7c70186ae077f30e0]
class Relation--><rect fill="#FEFECE" filter="url(#f1lua873czk68r)" height="92.7969" id="Relation" style="stroke: #A80036; stroke-width: 1.5;" width="103" x="673.5" y="49.5"/><ellipse cx="688.5" cy="68.5625" fill="#ADD1B2" rx="11" ry="11" style="stroke: #A80036; stroke-width: 1.0;"/><path d="M688.5469,74.7656 C690.0469,74.7656 691.2813,74.2031 692.1875,73.1406 L690.8125,71.625 C690.2656,72.2188 689.6094,72.6094 688.8125,72.6094 C687.1406,72.6094 685.9844,71.2813 685.9844,69 C685.9844,66.7813 687.1406,65.4375 688.7031,65.4375 C689.5156,65.4375 690.1094,65.75 690.6406,66.2344 L692.0156,64.6875 C691.2656,63.9531 690.1094,63.2813 688.7031,63.2813 C685.75,63.2813 683.4219,65.4219 683.4219,69.0938 C683.4219,72.8125 685.7969,74.7656 688.5469,74.7656 Z "/><text fill="#000000" font-family="sans-serif" font-size="12" font-style="italic" lengthAdjust="spacingAndGlyphs" textLength="75" x="700.5" y="65.6328">«Отношение»</text><text fill="#000000" font-family="sans-serif" font-size="12" lengthAdjust="spacingAndGlyphs" textLength="45" x="715.5" y="79.6953">Relation</text><line style="stroke: #A80036; stroke-width: 1.5;" x1="674.5" x2="775.5" y1="87.625" y2="87.625"/><ellipse cx="684.5" cy="98.625" fill="none" rx="3" ry="3" style="stroke: #038048; stroke-width: 1.0;"/><text fill="#000000" font-family="sans-serif" font-size="11" lengthAdjust="spacingAndGlyphs" textLength="17" x="693.5" y="101.8301">uid</text><ellipse cx="684.5" cy="111.5156" fill="none" rx="3" ry="3" style="stroke: #038048; stroke-width: 1.0;"/><text fill="#000000" font-family="sans-serif" font-size="11" lengthAdjust="spacingAndGlyphs" textLength="28" x="693.5" y="114.7207">code</text><ellipse cx="684.5" cy="124.4063" fill="none" rx="3" ry="3" style="stroke: #038048; stroke-width: 1.0;"/><text fill="#000000" font-family="sans-serif" font-size="11" lengthAdjust="spacingAndGlyphs" textLength="32" x="693.5" y="127.6113">name</text><line style="stroke: #A80036; stroke-width: 1.5;" x1="674.5" x2="775.5" y1="134.2969" y2="134.2969"/><!--MD5=[f2e66a8a0dc65517430edbb35efa336f]
class RelationMemberRole--><rect fill="#FEFECE" filter="url(#f1lua873czk68r)" height="79.9063" id="RelationMemberRole" style="stroke: #A80036; stroke-width: 1.5;" width="144" x="729" y="536.5"/><ellipse cx="744" cy="555.5625" fill="#ADD1B2" rx="11" ry="11" style="stroke: #A80036; stroke-width: 1.0;"/><path d="M744.0469,561.7656 C745.5469,561.7656 746.7813,561.2031 747.6875,560.1406 L746.3125,558.625 C745.7656,559.2188 745.1094,559.6094 744.3125,559.6094 C742.6406,559.6094 741.4844,558.2813 741.4844,556 C741.4844,553.7813 742.6406,552.4375 744.2031,552.4375 C745.0156,552.4375 745.6094,552.75 746.1406,553.2344 L747.5156,551.6875 C746.7656,550.9531 745.6094,550.2813 744.2031,550.2813 C741.25,550.2813 738.9219,552.4219 738.9219,556.0938 C738.9219,559.8125 741.2969,561.7656 744.0469,561.7656 Z "/><text fill="#000000" font-family="sans-serif" font-size="12" font-style="italic" lengthAdjust="spacingAndGlyphs" textLength="39" x="794.5" y="552.6328">«Роль»</text><text fill="#000000" font-family="sans-serif" font-size="12" lengthAdjust="spacingAndGlyphs" textLength="112" x="758" y="566.6953">RelationMemberRole</text><line style="stroke: #A80036; stroke-width: 1.5;" x1="730" x2="872" y1="574.625" y2="574.625"/><ellipse cx="740" cy="585.625" fill="none" rx="3" ry="3" style="stroke: #038048; stroke-width: 1.0;"/><text fill="#000000" font-family="sans-serif" font-size="11" lengthAdjust="spacingAndGlyphs" textLength="28" x="749" y="588.8301">code</text><ellipse cx="740" cy="598.5156" fill="none" rx="3" ry="3" style="stroke: #038048; stroke-width: 1.0;"/><text fill="#000000" font-family="sans-serif" font-size="11" lengthAdjust="spacingAndGlyphs" textLength="32" x="749" y="601.7207">name</text><line style="stroke: #A80036; stroke-width: 1.5;" x1="730" x2="872" y1="608.4063" y2="608.4063"/><!--MD5=[4d3f4261bb04900501d7a623ddd65e4c]
class RelationMember--><rect fill="#FEFECE" filter="url(#f1lua873czk68r)" height="118.5781" id="RelationMember" style="stroke: #A80036; stroke-width: 1.5;" width="195" x="703.5" y="288"/><ellipse cx="736.05" cy="307.0625" fill="#ADD1B2" rx="11" ry="11" style="stroke: #A80036; stroke-width: 1.0;"/><path d="M736.0969,313.2656 C737.5969,313.2656 738.8313,312.7031 739.7375,311.6406 L738.3625,310.125 C737.8156,310.7188 737.1594,311.1094 736.3625,311.1094 C734.6906,311.1094 733.5344,309.7813 733.5344,307.5 C733.5344,305.2813 734.6906,303.9375 736.2531,303.9375 C737.0656,303.9375 737.6594,304.25 738.1906,304.7344 L739.5656,303.1875 C738.8156,302.4531 737.6594,301.7813 736.2531,301.7813 C733.3,301.7813 730.9719,303.9219 730.9719,307.5938 C730.9719,311.3125 733.3469,313.2656 736.0969,313.2656 Z "/><text fill="#000000" font-family="sans-serif" font-size="12" font-style="italic" lengthAdjust="spacingAndGlyphs" textLength="128" x="751.95" y="304.1328">«Участник отношения»</text><text fill="#000000" font-family="sans-serif" font-size="12" lengthAdjust="spacingAndGlyphs" textLength="88" x="771.95" y="318.1953">RelationMember</text><line style="stroke: #A80036; stroke-width: 1.5;" x1="704.5" x2="897.5" y1="326.125" y2="326.125"/><text fill="#000000" font-family="sans-serif" font-size="11" lengthAdjust="spacingAndGlyphs" textLength="55" x="709.5" y="340.3301">user: User</text><text fill="#000000" font-family="sans-serif" font-size="11" lengthAdjust="spacingAndGlyphs" textLength="91" x="709.5" y="353.2207">relation: Relation</text><text fill="#000000" font-family="sans-serif" font-size="11" lengthAdjust="spacingAndGlyphs" textLength="183" x="709.5" y="366.1113">role: RelationMemberRole «Роль»</text><text fill="#000000" font-family="sans-serif" font-size="11" lengthAdjust="spacingAndGlyphs" textLength="105" x="709.5" y="379.002">begDate: DateTime</text><text fill="#000000" font-family="sans-serif" font-size="11" lengthAdjust="spacingAndGlyphs" textLength="105" x="709.5" y="391.8926">endDate: DateTime</text><line style="stroke: #A80036; stroke-width: 1.5;" x1="704.5" x2="897.5" y1="398.5781" y2="398.5781"/><!--MD5=[2ca1536628238a7dc78c5d90808014f9]
class Session--><rect fill="#FEFECE" filter="url(#f1lua873czk68r)" height="105.6875" id="Session" style="stroke: #A80036; stroke-width: 1.5;" width="117" x="965.5" y="43"/><ellipse cx="994.9" cy="62.0625" fill="#ADD1B2" rx="11" ry="11" style="stroke: #A80036; stroke-width: 1.0;"/><path d="M994.9469,68.2656 C996.4469,68.2656 997.6813,67.7031 998.5875,66.6406 L997.2125,65.125 C996.6656,65.7188 996.0094,66.1094 995.2125,66.1094 C993.5406,66.1094 992.3844,64.7813 992.3844,62.5 C992.3844,60.2813 993.5406,58.9375 995.1031,58.9375 C995.9156,58.9375 996.5094,59.25 997.0406,59.7344 L998.4156,58.1875 C997.6656,57.4531 996.5094,56.7813 995.1031,56.7813 C992.15,56.7813 989.8219,58.9219 989.8219,62.5938 C989.8219,66.3125 992.1969,68.2656 994.9469,68.2656 Z "/><text fill="#000000" font-family="sans-serif" font-size="12" font-style="italic" lengthAdjust="spacingAndGlyphs" textLength="57" x="1010.1" y="59.1328">«Контакт»</text><text fill="#000000" font-family="sans-serif" font-size="12" lengthAdjust="spacingAndGlyphs" textLength="44" x="1016.6" y="73.1953">Session</text><line style="stroke: #A80036; stroke-width: 1.5;" x1="966.5" x2="1081.5" y1="81.125" y2="81.125"/><ellipse cx="976.5" cy="92.125" fill="none" rx="3" ry="3" style="stroke: #038048; stroke-width: 1.0;"/><text fill="#000000" font-family="sans-serif" font-size="11" lengthAdjust="spacingAndGlyphs" textLength="17" x="985.5" y="95.3301">uid</text><ellipse cx="976.5" cy="105.0156" fill="none" rx="3" ry="3" style="stroke: #038048; stroke-width: 1.0;"/><text fill="#000000" font-family="sans-serif" font-size="11" lengthAdjust="spacingAndGlyphs" textLength="46" x="985.5" y="108.2207">begDate</text><ellipse cx="976.5" cy="117.9063" fill="none" rx="3" ry="3" style="stroke: #038048; stroke-width: 1.0;"/><text fill="#000000" font-family="sans-serif" font-size="11" lengthAdjust="spacingAndGlyphs" textLength="48" x="985.5" y="121.1113">direction</text><ellipse cx="976.5" cy="130.7969" fill="none" rx="3" ry="3" style="stroke: #038048; stroke-width: 1.0;"/><text fill="#000000" font-family="sans-serif" font-size="11" lengthAdjust="spacingAndGlyphs" textLength="91" x="985.5" y="134.002">relation: Relation</text><line style="stroke: #A80036; stroke-width: 1.5;" x1="966.5" x2="1081.5" y1="140.6875" y2="140.6875"/><!--MD5=[ac13618b1a974308c1f12eb6c57723dc]
class Event--><rect fill="#FEFECE" filter="url(#f1lua873czk68r)" height="92.7969" id="Event" style="stroke: #A80036; stroke-width: 1.5;" width="113" x="965.5" y="301"/><ellipse cx="991.3" cy="320.0625" fill="#ADD1B2" rx="11" ry="11" style="stroke: #A80036; stroke-width: 1.0;"/><path d="M991.3469,326.2656 C992.8469,326.2656 994.0813,325.7031 994.9875,324.6406 L993.6125,323.125 C993.0656,323.7188 992.4094,324.1094 991.6125,324.1094 C989.9406,324.1094 988.7844,322.7813 988.7844,320.5 C988.7844,318.2813 989.9406,316.9375 991.5031,316.9375 C992.3156,316.9375 992.9094,317.25 993.4406,317.7344 L994.8156,316.1875 C994.0656,315.4531 992.9094,314.7813 991.5031,314.7813 C988.55,314.7813 986.2219,316.9219 986.2219,320.5938 C986.2219,324.3125 988.5969,326.2656 991.3469,326.2656 Z "/><text fill="#000000" font-family="sans-serif" font-size="12" font-style="italic" lengthAdjust="spacingAndGlyphs" textLength="61" x="1005.7" y="317.1328">«Событие»</text><text fill="#000000" font-family="sans-serif" font-size="12" lengthAdjust="spacingAndGlyphs" textLength="30" x="1021.2" y="331.1953">Event</text><line style="stroke: #A80036; stroke-width: 1.5;" x1="966.5" x2="1077.5" y1="339.125" y2="339.125"/><ellipse cx="976.5" cy="350.125" fill="none" rx="3" ry="3" style="stroke: #038048; stroke-width: 1.0;"/><text fill="#000000" font-family="sans-serif" font-size="11" lengthAdjust="spacingAndGlyphs" textLength="24" x="985.5" y="353.3301">date</text><ellipse cx="976.5" cy="363.0156" fill="none" rx="3" ry="3" style="stroke: #038048; stroke-width: 1.0;"/><text fill="#000000" font-family="sans-serif" font-size="11" lengthAdjust="spacingAndGlyphs" textLength="41" x="985.5" y="366.2207">content</text><ellipse cx="976.5" cy="375.9063" fill="none" rx="3" ry="3" style="stroke: #038048; stroke-width: 1.0;"/><text fill="#000000" font-family="sans-serif" font-size="11" lengthAdjust="spacingAndGlyphs" textLength="87" x="985.5" y="379.1113">relationMember</text><line style="stroke: #A80036; stroke-width: 1.5;" x1="966.5" x2="1077.5" y1="385.7969" y2="385.7969"/><!--MD5=[503d05509fd35f3bfbf955252db84c2c]
class ProductCart--><rect fill="#FEFECE" filter="url(#f1lua873czk68r)" height="79.9063" id="ProductCart" style="stroke: #A80036; stroke-width: 1.5;" width="97" x="45.5" y="56"/><ellipse cx="60.5" cy="75.0625" fill="#ADD1B2" rx="11" ry="11" style="stroke: #A80036; stroke-width: 1.0;"/><path d="M60.5469,81.2656 C62.0469,81.2656 63.2813,80.7031 64.1875,79.6406 L62.8125,78.125 C62.2656,78.7188 61.6094,79.1094 60.8125,79.1094 C59.1406,79.1094 57.9844,77.7813 57.9844,75.5 C57.9844,73.2813 59.1406,71.9375 60.7031,71.9375 C61.5156,71.9375 62.1094,72.25 62.6406,72.7344 L64.0156,71.1875 C63.2656,70.4531 62.1094,69.7813 60.7031,69.7813 C57.75,69.7813 55.4219,71.9219 55.4219,75.5938 C55.4219,79.3125 57.7969,81.2656 60.5469,81.2656 Z "/><text fill="#000000" font-family="sans-serif" font-size="12" font-style="italic" lengthAdjust="spacingAndGlyphs" textLength="59" x="77.5" y="72.1328">«Корзина»</text><text fill="#000000" font-family="sans-serif" font-size="12" lengthAdjust="spacingAndGlyphs" textLength="65" x="74.5" y="86.1953">ProductCart</text><line style="stroke: #A80036; stroke-width: 1.5;" x1="46.5" x2="141.5" y1="94.125" y2="94.125"/><text fill="#000000" font-family="sans-serif" font-size="11" lengthAdjust="spacingAndGlyphs" textLength="17" x="51.5" y="108.3301">uid</text><text fill="#000000" font-family="sans-serif" font-size="11" lengthAdjust="spacingAndGlyphs" textLength="85" x="51.5" y="121.2207">createdBy: User</text><line style="stroke: #A80036; stroke-width: 1.5;" x1="46.5" x2="141.5" y1="127.9063" y2="127.9063"/><!--MD5=[eef7311fd8c1784d0bd6744d1314cc1f]
class ProductOffer--><rect fill="#FEFECE" filter="url(#f1lua873czk68r)" height="92.7969" id="ProductOffer" style="stroke: #A80036; stroke-width: 1.5;" width="127" x="30.5" y="301"/><ellipse cx="57.2" cy="320.0625" fill="#ADD1B2" rx="11" ry="11" style="stroke: #A80036; stroke-width: 1.0;"/><path d="M57.2469,326.2656 C58.7469,326.2656 59.9813,325.7031 60.8875,324.6406 L59.5125,323.125 C58.9656,323.7188 58.3094,324.1094 57.5125,324.1094 C55.8406,324.1094 54.6844,322.7813 54.6844,320.5 C54.6844,318.2813 55.8406,316.9375 57.4031,316.9375 C58.2156,316.9375 58.8094,317.25 59.3406,317.7344 L60.7156,316.1875 C59.9656,315.4531 58.8094,314.7813 57.4031,314.7813 C54.45,314.7813 52.1219,316.9219 52.1219,320.5938 C52.1219,324.3125 54.4969,326.2656 57.2469,326.2656 Z "/><text fill="#000000" font-family="sans-serif" font-size="12" font-style="italic" lengthAdjust="spacingAndGlyphs" textLength="53" x="81.8" y="317.1328">«Оферта»</text><text fill="#000000" font-family="sans-serif" font-size="12" lengthAdjust="spacingAndGlyphs" textLength="69" x="73.8" y="331.1953">ProductOffer</text><line style="stroke: #A80036; stroke-width: 1.5;" x1="31.5" x2="156.5" y1="339.125" y2="339.125"/><text fill="#000000" font-family="sans-serif" font-size="11" lengthAdjust="spacingAndGlyphs" textLength="115" x="36.5" y="353.3301">amount «Стоимость»</text><text fill="#000000" font-family="sans-serif" font-size="11" lengthAdjust="spacingAndGlyphs" textLength="91" x="36.5" y="366.2207">product: Product</text><text fill="#000000" font-family="sans-serif" font-size="11" lengthAdjust="spacingAndGlyphs" textLength="63" x="36.5" y="379.1113">good: Good</text><line style="stroke: #A80036; stroke-width: 1.5;" x1="31.5" x2="156.5" y1="385.7969" y2="385.7969"/><!--MD5=[72136138052d025cffdce3c22fbd185f]
class Product--><rect fill="#FEFECE" filter="url(#f1lua873czk68r)" height="79.9063" id="Product" style="stroke: #A80036; stroke-width: 1.5;" width="87" x="22.5" y="536.5"/><ellipse cx="37.5" cy="555.5625" fill="#ADD1B2" rx="11" ry="11" style="stroke: #A80036; stroke-width: 1.0;"/><path d="M37.5469,561.7656 C39.0469,561.7656 40.2813,561.2031 41.1875,560.1406 L39.8125,558.625 C39.2656,559.2188 38.6094,559.6094 37.8125,559.6094 C36.1406,559.6094 34.9844,558.2813 34.9844,556 C34.9844,553.7813 36.1406,552.4375 37.7031,552.4375 C38.5156,552.4375 39.1094,552.75 39.6406,553.2344 L41.0156,551.6875 C40.2656,550.9531 39.1094,550.2813 37.7031,550.2813 C34.75,550.2813 32.4219,552.4219 32.4219,556.0938 C32.4219,559.8125 34.7969,561.7656 37.5469,561.7656 Z "/><text fill="#000000" font-family="sans-serif" font-size="12" font-style="italic" lengthAdjust="spacingAndGlyphs" textLength="59" x="49.5" y="552.6328">«Продукт»</text><text fill="#000000" font-family="sans-serif" font-size="12" lengthAdjust="spacingAndGlyphs" textLength="42" x="58" y="566.6953">Product</text><line style="stroke: #A80036; stroke-width: 1.5;" x1="23.5" x2="108.5" y1="574.625" y2="574.625"/><text fill="#000000" font-family="sans-serif" font-size="11" lengthAdjust="spacingAndGlyphs" textLength="28" x="28.5" y="588.8301">code</text><text fill="#000000" font-family="sans-serif" font-size="11" lengthAdjust="spacingAndGlyphs" textLength="32" x="28.5" y="601.7207">name</text><line style="stroke: #A80036; stroke-width: 1.5;" x1="23.5" x2="108.5" y1="608.4063" y2="608.4063"/><path d="M145,533.5 L145,572.5 L109.5059,576.5 L145,580.5 L145,619.6719 A0,0 0 0 0 145,619.6719 L317,619.6719 A0,0 0 0 0 317,619.6719 L317,543.5 L307,533.5 L145,533.5 A0,0 0 0 0 145,533.5 " fill="#FBFB77" filter="url(#f1lua873czk68r)" style="stroke: #A80036; stroke-width: 1.0;"/><path d="M307,533.5 L307,543.5 L317,543.5 L307,533.5 " fill="#FBFB77" style="stroke: #A80036; stroke-width: 1.0;"/><text fill="#000000" font-family="sans-serif" font-size="13" lengthAdjust="spacingAndGlyphs" textLength="120" x="151" y="550.5605">Продукт или услуга</text><text fill="#000000" font-family="sans-serif" font-size="13" lengthAdjust="spacingAndGlyphs" textLength="151" x="151" y="565.7949">Это может быть отовар</text><text fill="#000000" font-family="sans-serif" font-size="13" lengthAdjust="spacingAndGlyphs" textLength="137" x="151" y="581.0293">(недвижимость, авто)</text><text fill="#000000" font-family="sans-serif" font-size="13" lengthAdjust="spacingAndGlyphs" textLength="146" x="151" y="596.2637">или услуга "Страховка",</text><text fill="#000000" font-family="sans-serif" font-size="13" lengthAdjust="spacingAndGlyphs" textLength="88" x="151" y="611.498">"Оценка" и т.д.</text><!--MD5=[0c92b8a367af754e33597870bf0c31e1]
class Good--><rect fill="#FEFECE" filter="url(#f1lua873czk68r)" height="92.7969" id="Good" style="stroke: #A80036; stroke-width: 1.5;" width="74" x="352" y="530"/><ellipse cx="367" cy="549.0625" fill="#ADD1B2" rx="11" ry="11" style="stroke: #A80036; stroke-width: 1.0;"/><path d="M367.0469,555.2656 C368.5469,555.2656 369.7813,554.7031 370.6875,553.6406 L369.3125,552.125 C368.7656,552.7188 368.1094,553.1094 367.3125,553.1094 C365.6406,553.1094 364.4844,551.7813 364.4844,549.5 C364.4844,547.2813 365.6406,545.9375 367.2031,545.9375 C368.0156,545.9375 368.6094,546.25 369.1406,546.7344 L370.5156,545.1875 C369.7656,544.4531 368.6094,543.7813 367.2031,543.7813 C364.25,543.7813 361.9219,545.9219 361.9219,549.5938 C361.9219,553.3125 364.2969,555.2656 367.0469,555.2656 Z "/><text fill="#000000" font-family="sans-serif" font-size="12" font-style="italic" lengthAdjust="spacingAndGlyphs" textLength="46" x="379" y="546.1328">«Товар»</text><text fill="#000000" font-family="sans-serif" font-size="12" lengthAdjust="spacingAndGlyphs" textLength="29" x="387.5" y="560.1953">Good</text><line style="stroke: #A80036; stroke-width: 1.5;" x1="353" x2="425" y1="568.125" y2="568.125"/><text fill="#000000" font-family="sans-serif" font-size="11" lengthAdjust="spacingAndGlyphs" textLength="28" x="358" y="582.3301">code</text><text fill="#000000" font-family="sans-serif" font-size="11" lengthAdjust="spacingAndGlyphs" textLength="32" x="358" y="595.2207">name</text><text fill="#000000" font-family="sans-serif" font-size="11" lengthAdjust="spacingAndGlyphs" textLength="24" x="358" y="608.1113">data</text><line style="stroke: #A80036; stroke-width: 1.5;" x1="353" x2="425" y1="614.7969" y2="614.7969"/><path d="M461,548.5 L461,572.5 L426.2852,576.5 L461,580.5 L461,604.2031 A0,0 0 0 0 461,604.2031 L649,604.2031 A0,0 0 0 0 649,604.2031 L649,558.5 L639,548.5 L461,548.5 A0,0 0 0 0 461,548.5 " fill="#FBFB77" filter="url(#f1lua873czk68r)" style="stroke: #A80036; stroke-width: 1.0;"/><path d="M639,548.5 L639,558.5 L649,558.5 L639,548.5 " fill="#FBFB77" style="stroke: #A80036; stroke-width: 1.0;"/><text fill="#000000" font-family="sans-serif" font-size="13" lengthAdjust="spacingAndGlyphs" textLength="167" x="467" y="565.5605">Информация о конкретном</text><text fill="#000000" font-family="sans-serif" font-size="13" lengthAdjust="spacingAndGlyphs" textLength="147" x="467" y="580.7949">товаре (недвижимости,</text><text fill="#000000" font-family="sans-serif" font-size="13" lengthAdjust="spacingAndGlyphs" textLength="77" x="467" y="596.0293">авто и т.дю)</text><!--MD5=[8c7faf5151f200e05c3388af8c5f6ba8]
link RelationMember to RelationMemberRole--><path d="M801,407.0693 C801,447.7537 801,500.5643 801,536.3318 " fill="none" id="RelationMember-RelationMemberRole" style="stroke: #A80036; stroke-width: 1.0; stroke-dasharray: 7.0,7.0;"/><text fill="#000000" font-family="sans-serif" font-size="13" lengthAdjust="spacingAndGlyphs" textLength="7" x="793.3984" y="525.2276">1</text><!--MD5=[ed03198c2b12b7aa0fa06c7567250247]
reverse link User to RelationMember--><path d="M856.3219,148.7362 C845.0137,189.365 829.3751,245.5524 817.6093,287.8252 " fill="none" id="User&lt;-RelationMember" style="stroke: #A80036; stroke-width: 1.0;"/><polygon fill="#A80036" points="859.8309,136.129,854.3685,140.8367,856.6132,147.6896,862.0756,142.9818,859.8309,136.129" style="stroke: #A80036; stroke-width: 1.0;"/><text fill="#000000" font-family="sans-serif" font-size="13" lengthAdjust="spacingAndGlyphs" textLength="62" x="840" y="223.0605">содержит</text><polygon fill="#000000" points="866.5,232.2344,869.5,238.2344,872.5,232.2344,866.5,232.2344" style="stroke: #000000; stroke-width: 1.0;"/><text fill="#000000" font-family="sans-serif" font-size="13" lengthAdjust="spacingAndGlyphs" textLength="7" x="850.4013" y="156.1053">1</text><text fill="#000000" font-family="sans-serif" font-size="13" lengthAdjust="spacingAndGlyphs" textLength="11" x="807.9632" y="276.7388">M</text><!--MD5=[01a039452a05781d749b516b8da7a964]
reverse link Relation to RelationMember--><path d="M732.9962,155.5925 C736.7911,178.2238 742.048,204.0634 749,227 C755.1465,247.279 763.6898,268.7268 772.0773,287.8179 " fill="none" id="Relation&lt;-RelationMember" style="stroke: #A80036; stroke-width: 1.0;"/><polygon fill="#A80036" points="730.9291,142.6845,727.9282,149.2415,732.8267,154.5335,735.8276,147.9765,730.9291,142.6845" style="stroke: #A80036; stroke-width: 1.0;"/><text fill="#000000" font-family="sans-serif" font-size="13" lengthAdjust="spacingAndGlyphs" textLength="62" x="750" y="223.0605">содержит</text><polygon fill="#000000" points="776.5,232.2344,779.5,238.2344,782.5,232.2344,776.5,232.2344" style="stroke: #000000; stroke-width: 1.0;"/><text fill="#000000" font-family="sans-serif" font-size="13" lengthAdjust="spacingAndGlyphs" textLength="7" x="724.2707" y="162.3955">1</text><text fill="#000000" font-family="sans-serif" font-size="13" lengthAdjust="spacingAndGlyphs" textLength="11" x="756.882" y="276.7306">M</text><!--MD5=[29931f6831ef65ce7a374b33a13516d7]
reverse link Session to Event--><path d="M1023.474,162.1411 C1023.127,205.7848 1022.6808,261.8915 1022.3707,300.8898 " fill="none" id="Session&lt;-Event" style="stroke: #A80036; stroke-width: 1.0;"/><polygon fill="#A80036" points="1023.5783,149.0294,1019.5306,154.9973,1023.4827,161.029,1027.5304,155.0611,1023.5783,149.0294" style="stroke: #A80036; stroke-width: 1.0;"/><text fill="#000000" font-family="sans-serif" font-size="13" lengthAdjust="spacingAndGlyphs" textLength="62" x="1024" y="223.0605">содержит</text><polygon fill="#000000" points="1050.5,232.2344,1053.5,238.2344,1056.5,232.2344,1050.5,232.2344" style="stroke: #000000; stroke-width: 1.0;"/><text fill="#000000" font-family="sans-serif" font-size="13" lengthAdjust="spacingAndGlyphs" textLength="7" x="1016.0758" y="168.8803">1</text><text fill="#000000" font-family="sans-serif" font-size="13" lengthAdjust="spacingAndGlyphs" textLength="11" x="1010.5853" y="289.6982">M</text><!--MD5=[eefe71f2179209e03dba9416200163ca]
reverse link ProductCart to ProductOffer--><path d="M94,149.4119 C94,194.2779 94,257.7608 94,300.6687 " fill="none" id="ProductCart&lt;-ProductOffer" style="stroke: #A80036; stroke-width: 1.0;"/><polygon fill="#A80036" points="94,136.129,90,142.129,94,148.129,98,142.129,94,136.129" style="stroke: #A80036; stroke-width: 1.0;"/><text fill="#000000" font-family="sans-serif" font-size="13" lengthAdjust="spacingAndGlyphs" textLength="62" x="95" y="223.0605">содержит</text><polygon fill="#000000" points="121.5,232.2344,124.5,238.2344,127.5,232.2344,121.5,232.2344" style="stroke: #000000; stroke-width: 1.0;"/><text fill="#000000" font-family="sans-serif" font-size="13" lengthAdjust="spacingAndGlyphs" textLength="7" x="86.4203" y="156.1053">1</text><text fill="#000000" font-family="sans-serif" font-size="13" lengthAdjust="spacingAndGlyphs" textLength="11" x="82.1922" y="289.7815">M</text><!--MD5=[1853c8fc1af6ad2ccfeb7ca0a4d52f2a]
link ProductOffer to Product--><path d="M88.3,394.1176 C83.1833,435.9652 75.7515,496.7464 70.8972,536.4475 " fill="none" id="ProductOffer-Product" style="stroke: #A80036; stroke-width: 1.0; stroke-dasharray: 7.0,7.0;"/><text fill="#000000" font-family="sans-serif" font-size="13" lengthAdjust="spacingAndGlyphs" textLength="7" x="64.1373" y="525.3632">1</text><!--MD5=[fe328e0ca6180b48c42b683f98ca1256]
link ProductOffer to Good--><path d="M157.0927,394.0824 C205.8975,430.4497 274.8934,482.5934 334,530 C339.8525,534.694 345.9829,539.742 351.9394,544.7202 " fill="none" id="ProductOffer-Good" style="stroke: #A80036; stroke-width: 1.0; stroke-dasharray: 7.0,7.0;"/><text fill="#000000" font-family="sans-serif" font-size="13" lengthAdjust="spacingAndGlyphs" textLength="7" x="336.954" y="534.0906">1</text><!--MD5=[85f3f9912500e68bc7e83ac31607a6d2]
@startuml model

package "Отношения" {
  
  class User<<Пользователь>>{
    + code
    + name
  }

  class Relation <<Отношение>>{
    + uid
    + code
    + name
  }

  class RelationMemberRole <<Роль>>{
    + code
    + name
  }

  RelationMember .. "1" RelationMemberRole

  class RelationMember<<Участник отношения>> {
    user: User
    relation: Relation
    role: RelationMemberRole <<Роль>>
    begDate: DateTime
    endDate: DateTime
  }

  User "1" *- - "M" RelationMember : содержит >
  Relation "1" *- - "M" RelationMember : содержит >
}

package "Контакты" {
  class Session <<Контакт>>{
    + uid
    + begDate
    + direction
    + relation: Relation
  }

  class Event <<Событие>>{
    + date
    + content
    + relationMember
  }
  Session "1" *- - "M" Event : содержит >

}

package "Сделки" {
  class ProductCart <<Корзина>> {
    uid
    createdBy: User
  }      
  class ProductOffer <<Оферта>> {
    amount <<Стоимость>>
    product: Product
    good: Good
  }
  ProductCart "1" *- - "M" ProductOffer : содержит >

  class Product <<Продукт>> {
    code
    name
  }
  note right of Product
    Продукт или услуга
    Это может быть отовар
    (недвижимость, авто)
    или услуга "Страховка",
    "Оценка" и т.д.
  end note

  ProductOffer .. "1" Product
  ProductOffer .. "1" Good

  class Good <<Товар>> {
    code
    name
    data
  }

  note right of Good
    Информация о конкретном
    товаре (недвижимости, 
    авто и т.дю)
  end note

}
@enduml

PlantUML version 1.2020.09(Sun May 10 14:51:06 SAMT 2020)
(GPL source distribution)
Java Runtime: OpenJDK Runtime Environment
JVM: OpenJDK 64-Bit Server VM
Java Version: 11.0.10+9-suse-lp152.2.9.1-x8664
Operating System: Linux
Default Encoding: UTF-8
Language: ru
Country: RU
--></g></svg>